# xmcd
#
# Track frame offsets:
#	150
#	17230
#	31880
#	50620
#	62559
#	73260
#	85364
#	103613
#	122069
#	146827
#	165547
#	177659
#	197631
#	211696
#
# Disc length: 3036 seconds
#
# Revision: 0
# Processed by: cddbd v1.5.2PL0 Copyright (c) Steve Scherf et al.
# Submitted via: EasyCDDAExtractor 15.3.0.1
#
DISCID=cc0bda0e
DTITLE=Measured Chaos - Somewhere Between Detroit and Chicago
DYEAR=1900
DGENRE=
TTITLE0=Livin' The Dream
TTITLE1=Cruisin'
TTITLE2=Bad, Bad Angel
TTITLE3=Train Is Coming Closer
TTITLE4=Never Loved That Girl
TTITLE5=Rubin Stacy
TTITLE6=Can't Stop Thinking
TTITLE7=First In Love
TTITLE8=How Many Men (You Got Livin' There?)
TTITLE9=Desperate Measures
TTITLE10=New Testament Shuffle
TTITLE11=About Last Night
TTITLE12=How Did I Get Here?
TTITLE13=Whiskey Blues
EXTD=
EXTT0=
EXTT1=
EXTT2=
EXTT3=
EXTT4=
EXTT5=
EXTT6=
EXTT7=
EXTT8=
EXTT9=
EXTT10=
EXTT11=
EXTT12=
EXTT13=
PLAYORDER=
